<svg width="65" height="67" viewBox="0 0 65 67" fill="none" xmlns="http://www.w3.org/2000/svg">
<path opacity="0.5" d="M64.067 0.71986L48.388 56.2635C48.3082 56.5156 47.9893 56.5912 47.8033 56.4147L37.3064 46.4557L45.1724 18.6209C45.2522 18.3688 45.013 18.1418 44.7472 18.2175L15.4089 25.6804L4.96507 15.7718C4.77905 15.5954 4.85878 15.2928 5.12452 15.2172L63.6418 0.316457C63.9075 0.266031 64.1467 0.492946 64.067 0.71986Z" fill="#00B37E"/>
<path opacity="0.5" d="M37.3058 46.4552L33.2665 60.8265C33.1868 61.0786 32.8679 61.1543 32.6818 60.9778L0.101381 30.0922C-0.0846408 29.9157 -0.00491742 29.6131 0.260829 29.5375L15.4084 25.68L37.3058 46.4552Z" fill="#00B37E"/>
<path d="M45.1711 38.6204L37.305 66.4552L15.4076 45.68L44.7459 38.217C45.0117 38.1414 45.2508 38.3683 45.1711 38.6204Z" fill="#00B37E"/>
</svg>
